<svg width="55" height="58" viewBox="0 0 55 58" fill="none" xmlns="http://www.w3.org/2000/svg">
<path d="M3 8.44377L4.70413 5.97477L0 2.72791V8.44377H3ZM3 49.2721H0V54.9879L4.70413 51.7411L3 49.2721ZM32.5766 28.8579L34.2807 31.3269L37.8578 28.8579L34.2807 26.3889L32.5766 28.8579ZM49.8436 28.8579L51.5756 31.3075L54.981 28.8997L51.6152 26.4369L49.8436 28.8579ZM0 8.44377V49.2721H6V8.44377H0ZM4.70413 51.7411L34.2807 31.3269L30.8724 26.3889L1.29587 46.8031L4.70413 51.7411ZM34.2807 26.3889L4.70413 5.97477L1.29587 10.9128L30.8724 31.3269L34.2807 26.3889ZM12.7339 5.42107L48.0721 31.279L51.6152 26.4369L16.277 0.578933L12.7339 5.42107ZM49.8436 28.8579C48.1117 26.4084 48.1115 26.4085 48.1113 26.4086C48.1111 26.4088 48.1108 26.409 48.1105 26.4092C48.1098 26.4097 48.1087 26.4105 48.1073 26.4115C48.1045 26.4134 48.1004 26.4164 48.0949 26.4202C48.0841 26.4279 48.0679 26.4393 48.0467 26.4544C48.0041 26.4845 47.941 26.5292 47.8582 26.5879C47.6926 26.7052 47.4485 26.8784 47.1334 27.1025C46.5031 27.5505 45.5884 28.2019 44.4495 29.0167C42.1719 30.646 38.9963 32.9293 35.4032 35.5458C28.2273 40.7711 19.3481 47.353 12.6341 52.7113L16.3768 57.4009C22.9817 52.1296 31.7717 45.6124 38.9351 40.3961C42.5117 37.7917 45.6733 35.5185 47.9405 33.8966C49.074 33.0857 49.9837 32.4378 50.6096 31.9929C50.9225 31.7704 51.1645 31.5988 51.328 31.4829C51.4097 31.4249 51.4718 31.3809 51.5134 31.3515C51.5342 31.3368 51.5499 31.3257 51.5603 31.3183C51.5655 31.3146 51.5693 31.3119 51.5719 31.3101C51.5732 31.3092 51.5741 31.3085 51.5747 31.3081C51.575 31.3079 51.5752 31.3077 51.5754 31.3076C51.5755 31.3075 51.5756 31.3075 49.8436 28.8579Z" fill="white"/>
</svg>
